<svg id="Layer_1" data-name="Layer 1" xmlns="http://www.w3.org/2000/svg" xmlns:xlink="http://www.w3.org/1999/xlink" viewBox="0 0 300 300"><defs><style>.cls-1{fill:#4f61e8;}.cls-2,.cls-3,.cls-4{fill:#fff;}.cls-3{opacity:0.34;}.cls-4{opacity:0.1;}.cls-5{fill:url(#linear-gradient);}.cls-6{fill:url(#linear-gradient-2);}</style><linearGradient id="linear-gradient" x1="111.02" y1="127.49" x2="113.25" y2="111.59" gradientUnits="userSpaceOnUse"><stop offset="0" stop-color="#fff" stop-opacity="0"/><stop offset="0.99" stop-color="#050505" stop-opacity="0.39"/><stop offset="1" stop-opacity="0.4"/></linearGradient><linearGradient id="linear-gradient-2" x1="199.12" y1="181" x2="200.52" y2="164.97" gradientTransform="translate(396.47 350.4) rotate(180)" xlink:href="#linear-gradient"/></defs><rect class="cls-1" width="300" height="300"/><polygon class="cls-2" points="207.7 210.93 91.8 212.27 100.92 87 127.77 87.06 120.73 184.98 209.7 184.01 207.7 210.93"/><polygon class="cls-3" points="181.74 225.19 77.53 226.54 85.65 112.42 112.5 114.33 106.46 199.24 181.39 198.28 181.74 225.19"/><polygon class="cls-4" points="219.98 188.21 193.13 186.31 199.17 101.38 121.7 102.35 121.36 75.44 228.1 74.1 219.98 188.21"/><polygon class="cls-5" points="98.14 125.17 99.03 113.37 125.88 113.37 124.72 129.42 98.14 125.17"/><polygon class="cls-2" points="208.58 199.62 181.73 197.71 187.77 112.79 99 113.76 101 86.84 216.7 85.5 208.58 199.62"/><polygon class="cls-6" points="210.6 172.47 209.71 184.27 182.64 184.27 183.81 168.22 210.6 172.47"/></svg>